<svg width="60" height="60" viewBox="0 0 60 60" fill="none" xmlns="http://www.w3.org/2000/svg">
<circle cx="17" cy="30" r="11" fill="#D9BC80"/>
<path d="M27 26H50V30H27V26Z" fill="#D9BC80"/>
<circle cx="11.5" cy="30.5" r="2.5" fill="white"/>
<path d="M45 33L40.6699 26.25H49.3301L45 33Z" fill="#D9BC80"/>
<path d="M39 34L34.6699 27.25H43.3301L39 34Z" fill="#D9BC80"/>
<path d="M32 35L27.6699 28.25H36.3301L32 35Z" fill="#D9BC80"/>
<path d="M23.5355 28.5355L31.3704 30.2466L25.2466 36.3703L23.5355 28.5355Z" fill="#D9BC80"/>
<path d="M50 32L45.6699 26H54.3301L50 32Z" fill="#D9BC80"/>
<path d="M30 1C46.0163 1 59 13.9837 59 30C59 46.0163 46.0163 59 30 59C13.9837 59 1 46.0163 1 30C1 13.9837 13.9837 1 30 1Z" stroke="#B27A00" stroke-opacity="0.5" stroke-width="2"/>
</svg>
