<svg width="72" height="73" viewBox="0 0 72 73" fill="none" xmlns="http://www.w3.org/2000/svg">
<path d="M10.5355 55.2219C8.58291 57.1745 8.58291 60.3404 10.5355 62.293C12.4882 64.2456 15.654 64.2456 17.6066 62.293L27.5061 52.3935C29.4587 50.4409 29.4587 47.275 27.5061 45.3224C25.5535 43.3698 22.3876 43.3698 20.435 45.3224L10.5355 55.2219Z" fill="#474747" fill-opacity="0.5"/>
<path d="M31 5.78686C31 3.02544 33.2386 0.786865 36 0.786865C38.7614 0.786865 41 3.02544 41 5.78687V19.7869C41 22.5483 38.7614 24.7869 36 24.7869C33.2386 24.7869 31 22.5483 31 19.7869V5.78686Z" fill="#474747" fill-opacity="0.8"/>
<path d="M54.4352 11.3224C56.3878 9.36978 59.5536 9.36978 61.5062 11.3224C63.4589 13.275 63.4589 16.4408 61.5062 18.3935L51.6067 28.293C49.6541 30.2456 46.4883 30.2456 44.5357 28.293C42.5831 26.3403 42.5831 23.1745 44.5357 21.2219L54.4352 11.3224Z" fill="#474747" fill-opacity="0.15"/>
<path d="M44.5355 52.3934C42.5829 50.4408 42.5829 47.275 44.5355 45.3224C46.4882 43.3698 49.654 43.3698 51.6066 45.3224L61.5061 55.2219C63.4587 57.1745 63.4587 60.3403 61.5061 62.2929C59.5535 64.2456 56.3876 64.2456 54.435 62.2929L44.5355 52.3934Z" fill="#474747" fill-opacity="0.3"/>
<path d="M67 31.7869C69.7614 31.7869 72 34.0254 72 36.7869C72 39.5483 69.7614 41.7869 67 41.7869H53C50.2386 41.7869 48 39.5483 48 36.7869C48 34.0254 50.2386 31.7869 53 31.7869H67Z" fill="#474747" fill-opacity="0.2"/>
<path d="M31 53.7869C31 51.0254 33.2386 48.7869 36 48.7869C38.7614 48.7869 41 51.0254 41 53.7869V67.7869C41 70.5483 38.7614 72.7869 36 72.7869C33.2386 72.7869 31 70.5483 31 67.7869V53.7869Z" fill="#474747" fill-opacity="0.4"/>
<path d="M5 41.7869C2.23858 41.7869 0 39.5483 0 36.7869C0 34.0254 2.23858 31.7869 5 31.7869H19C21.7614 31.7869 24 34.0254 24 36.7869C24 39.5483 21.7614 41.7869 19 41.7869H5Z" fill="#474747" fill-opacity="0.6"/>
<path d="M10.5355 18.3934C8.58291 16.4408 8.58291 13.275 10.5355 11.3224C12.4882 9.36975 15.654 9.36975 17.6066 11.3224L27.5061 21.2219C29.4587 23.1745 29.4587 26.3403 27.5061 28.2929C25.5535 30.2456 22.3876 30.2456 20.435 28.2929L10.5355 18.3934Z" fill="#474747" fill-opacity="0.7"/>
</svg>
