<svg width="60" height="60" viewBox="0 0 60 60" fill="none" xmlns="http://www.w3.org/2000/svg">
<path d="M30 1C46.0163 1 59 13.9837 59 30C59 46.0163 46.0163 59 30 59C13.9837 59 1 46.0163 1 30C1 13.9837 13.9837 1 30 1Z" stroke="#C3C0C0" stroke-width="2"/>
<path d="M30.5 41V52H24H37" stroke="#C3C0C0" stroke-width="2"/>
<path d="M17 27.5C16.9851 44.1631 43.9851 44.1273 44 27.5" stroke="#C3C0C0" stroke-width="2"/>
<path d="M30.5 11C34.0899 11 37 13.9101 37 17.5V28.5C37 32.0899 34.0899 35 30.5 35C26.9101 35 24 32.0899 24 28.5V17.5C24 13.9101 26.9101 11 30.5 11Z" stroke="#C3C0C0" stroke-width="2"/>
<path d="M10 50L50 10" stroke="#C3C0C0" stroke-width="2"/>
</svg>
