<svg width="101" height="101" viewBox="0 0 101 101" fill="none" xmlns="http://www.w3.org/2000/svg">
<path d="M2.44628 50.415C2.44628 23.9053 23.9366 2.415 50.4463 2.415C76.956 2.415 98.4463 23.9053 98.4463 50.415C98.4463 76.9247 76.956 98.415 50.4463 98.415C23.9366 98.415 2.44628 76.9247 2.44628 50.415Z" stroke="#868080" stroke-opacity="0.5" stroke-width="4"/>
<path d="M52.8605 20.0009C52.0795 19.2198 50.8131 19.2198 50.0321 20.0009L37.3042 32.7288C36.5231 33.5098 36.5231 34.7762 37.3042 35.5572C38.0852 36.3383 39.3515 36.3383 40.1326 35.5572L51.4463 24.2435L62.76 35.5572C63.541 36.3383 64.8074 36.3383 65.5884 35.5572C66.3695 34.7762 66.3695 33.5098 65.5884 32.7288L52.8605 20.0009ZM53.4463 57.4151V21.4151H49.4463V57.4151H53.4463Z" fill="#868080" fill-opacity="0.5"/>
<path d="M79.4458 67.415H23.4458V57.415" stroke="#868080" stroke-opacity="0.5" stroke-width="4" stroke-linejoin="round"/>
<path d="M77.4458 67.9389V58.4151" stroke="#868080" stroke-opacity="0.5" stroke-width="4" stroke-linejoin="round"/>
</svg>
