<svg width="824" height="746" viewBox="0 0 824 746" fill="none" xmlns="http://www.w3.org/2000/svg">
<rect x="33" y="16" width="773" height="697" rx="50" fill="white"/>
<rect x="16" y="27" width="783" height="120" rx="16" fill="#0080FF"/>
<path d="M10 157H805" stroke="black" stroke-width="32" stroke-linejoin="round"/>
<path d="M17.5 536.501C17.5 536.501 16 274 16 145C16 16.0001 16 16 128 16C240 16 612 16 710 16C808 16.0001 808 16.0001 808 145C808 274 807 532.491 807 630.996C807 729.501 807 729.501 686 729.501C565 729.501 564 729.501 564 729.501" stroke="black" stroke-width="32" stroke-linecap="round" stroke-linejoin="round"/>
<path d="M425.998 503C324.499 464.5 194.004 459.506 113.5 503C32.9961 546.495 33 657.995 33 657.995V730H436.331V633C436.331 633 520.845 627.547 547.498 612.5C574.15 597.453 642.998 478.5 642.998 478.5L586.498 445C561.329 453.41 527.496 541.501 425.998 503Z" fill="#FA425A" stroke="black" stroke-width="32" stroke-linejoin="round"/>
<circle cx="274" cy="302" r="89" fill="#38383A" stroke="black" stroke-width="32"/>
<circle cx="697" cy="362" r="50" fill="#FA425A" stroke="black" stroke-width="30"/>
</svg>
